<?xml version="1.0" encoding="UTF-8" standalone="no"?>
<!-- Created with Inkscape (http://www.inkscape.org/) -->

<svg
   width="260mm"
   height="260mm"
   viewBox="0 0 260 260"
   version="1.1"
   id="svg1"
   xml:space="preserve"
   sodipodi:docname="logo.svg"
   inkscape:version="1.3.2 (9e3d6414e7, 2024-01-14, custom)"
   inkscape:export-filename="logo_white.svg"
   inkscape:export-xdpi="200"
   inkscape:export-ydpi="200"
   xmlns:inkscape="http://www.inkscape.org/namespaces/inkscape"
   xmlns:sodipodi="http://sodipodi.sourceforge.net/DTD/sodipodi-0.dtd"
   xmlns="http://www.w3.org/2000/svg"
   xmlns:svg="http://www.w3.org/2000/svg"><sodipodi:namedview
     id="namedview1"
     pagecolor="#505050"
     bordercolor="#eeeeee"
     borderopacity="1"
     inkscape:showpageshadow="0"
     inkscape:pageopacity="0"
     inkscape:pagecheckerboard="0"
     inkscape:deskcolor="#d1d1d1"
     inkscape:document-units="mm"
     inkscape:zoom="0.37218056"
     inkscape:cx="566.92913"
     inkscape:cy="568.27256"
     inkscape:window-width="1920"
     inkscape:window-height="1043"
     inkscape:window-x="0"
     inkscape:window-y="0"
     inkscape:window-maximized="1"
     inkscape:current-layer="g1" /><defs
     id="defs1" /><g
     id="layer1"
     transform="translate(24.567231,-17.217302)"><g
       id="g1"><path
         style="fill:#4cae4f;fill-opacity:1"
         d="m 95.628592,269.47941 c -11.488908,-3.34612 -18.70388,-15.75019 -22.337608,-36.20539 -0.658678,-3.70787 -1.659397,-8.88086 -1.459605,-9.08065 0.224384,-0.22439 14.831396,-5.0217 14.947465,-4.90563 0.05558,0.0556 0.343514,1.99183 0.639848,4.30277 2.625179,20.47225 6.145533,29.87667 11.477188,30.66064 4.23625,0.62289 6.74733,-2.11919 8.26483,-9.02515 1.76321,-8.02412 3.62383,-10.27777 12.87585,-15.59565 0.87312,-0.50185 2.5569,-1.76673 3.74173,-2.81083 1.18483,-1.04411 2.63341,-2.09685 3.21907,-2.33944 2.01186,-0.83334 4.74312,-7.98799 4.74312,-12.4248 0,-2.03828 0.0831,-2.39684 0.47947,-2.06791 1.94304,1.61258 2.03675,7.12177 0.19951,11.72862 -1.31891,3.30713 -1.30964,3.07646 -0.12387,3.08282 2.33056,0.0125 4.32152,2.215 4.32152,4.7807 0,0.82861 -0.56429,3.30545 -1.25398,5.50408 -0.68969,2.19863 -1.40214,5.16405 -1.58323,6.58981 -0.89508,7.04722 -4.07802,11.67125 -9.41169,13.67289 -0.9272,0.34796 -2.4868,1.23053 -3.46578,1.96126 -2.74302,2.04743 -4.8842,2.84975 -8.2742,3.10041 l -2.99861,0.22171 1.41111,0.42445 c 2.92289,0.87916 7.52164,0.11502 10.0218,-1.66525 1.35178,-0.96255 1.92305,-0.25117 0.0566,1.59194 -6.84324,6.75766 -17.23861,10.31226 -25.490538,8.4986 z m 26.669668,-21.42954 c 1.70539,-2.02675 0.98101,-5.27974 -1.16985,-5.25338 -2.424,0.0297 -4.22156,3.92911 -2.62467,5.69364 0.94463,1.04381 2.71898,0.83794 3.79452,-0.44026 z m -77.226972,-35.52882 2.116667,-0.23573 c 5.557484,-0.61893 20.236497,-4.3514 27.795495,-7.16335 6.071714,-2.25868 14.673392,-6.45098 21.386523,-10.25329 20.432637,-11.47214 36.004737,-24.42461 49.995527,-43.75999 3.7041,3.16457 7.10529,6.16873 9.3766,10.12012 -16.73143,19.42235 -27.42821,29.91687 -42.79214,39.57155 -6.32467,3.97442 -37.355128,21.22302 -67.912796,23.83113 l -2.856346,0.24379 z m 105.454022,8.22403 c -4.96169,-1.74673 -12.72614,-5.01095 -12.6662,-5.42815 0.37254,-2.59314 -0.83149,-6.44982 -2.69923,-8.22997 1.79155,-2.15257 2.50723,-2.64963 3.65465,-4.37595 0.16608,-0.24987 4.24897,2.17442 6.69341,3.2503 14.53891,6.39894 27.86881,8.58219 34.04732,5.57647 8.35751,-4.06576 6.63435,-12.93779 -1.56293,-27.84763 -15.07456,-27.41876 -38.43985,-47.10499 -51.87004,-56.37138 -8.2277,-5.67683 -22.18174,-12.32505 -22.27793,-12.42124 -0.1957,-0.1957 9.23343,-6.48373 13.87463,-8.29061 18.87271,9.99678 31.22023,21.52433 45.31063,35.65881 17.48281,17.51692 29.60208,38.13972 33.86802,51.30705 4.35887,13.45419 -1.96103,25.91755 -15.30136,30.17552 -10.35585,2.4042 -21.17849,0.32945 -31.07097,-3.00322 z M 44.978012,207.16213 c -6.748899,-1.60078 -7.219033,-11.29428 -0.642492,-13.2473 6.806428,-2.02129 11.783209,5.87727 7.023064,11.14618 -1.074411,1.18924 -4.005943,2.59448 -5.028409,2.41038 -0.110304,-0.0199 -0.718778,-0.15903 -1.352163,-0.30926 z m 116.509938,-0.56218 c -4.40447,-2.29073 -5.34756,-7.67961 -1.94028,-11.08689 5.52748,-5.52749 14.31233,0.96314 10.88527,8.04251 -1.49634,3.09104 -5.94446,4.60493 -8.94499,3.04438 z M 66.264164,180.91931 c 5.055615,4.6764 9.32941,8.16195 19.276021,15.01807 -5.998238,3.1799 -9.03704,4.3943 -17.59077,7.19861 -0.916157,-6.81762 -1.298457,-12.89832 -1.685251,-22.21668 z m -0.609283,-5.17304 C 52.132349,164.23387 35.440382,145.7169 25.015997,130.8209 l -2.685872,-3.838 1.140027,-1.45096 c 0.627015,-0.79803 2.542357,-3.08927 4.256316,-5.09164 l 3.116289,-3.64068 3.032017,4.4578 c 9.56883,14.06852 26.422584,33.43078 39.024758,43.2137 15.743146,12.22122 24.196443,17.21989 31.094678,20.54296 -5.290276,3.77823 -9.982556,6.26975 -14.74215,8.51884 -5.996356,-3.64243 -15.457667,-10.85708 -23.597179,-17.78665 z m 35.772889,-10.05924 c -7.329079,-1.97355 -11.972253,-8.36609 -11.667438,-16.06328 0.599789,-15.14593 21.602838,-20.11971 29.467538,-6.97828 7.07699,11.8252 -4.37964,26.65538 -17.8001,23.04156 z m -0.78219,-5.18755 c -3.13821,-3.04796 -4.395635,-9.70583 -2.589936,-13.71332 1.503422,-3.33662 4.598236,-5.93732 8.143676,-6.84344 l 2.01919,-0.51606 -2.64584,0.11635 c -6.527088,0.28702 -11.078262,4.94576 -11.081366,11.34328 -0.0021,4.26474 1.099989,6.39919 4.851242,9.39581 2.075814,1.65824 2.933954,1.8014 1.303034,0.21738 z m -19.139817,5.19285 C 73.875256,159.4162 71.87314,157.8149 65.512077,151.0083 c -2.2513,-23.17312 8.92894,-48.42168 15.339522,-56.065916 6.123635,-8.050716 15.008158,-5.657356 19.596701,-0.009 -7.231432,5.739986 -11.320755,11.037206 -14.140322,18.177136 -6.464538,16.37001 -8.358731,33.28751 -4.802215,52.58181 z m 81.275797,-30.60405 c 9.12964,-10.52249 21.06114,-23.12737 21.39363,-37.752014 -1.19253,-16.729602 -25.63372,-10.279943 -33.55661,-8.600645 -24.01084,5.089221 -38.47974,16.027259 -62.878611,31.663709 4.005717,-8.64489 8.602186,-14.11974 14.472641,-19.93751 16.97497,-16.822619 49.50592,-31.493479 78.67811,-23.298187 12.96859,3.643242 18.6381,10.74964 14.92221,26.468377 -2.06777,8.74695 -8.68276,21.32506 -16.46298,31.2803 -3.33133,4.26263 -7.748,9.91704 -7.76962,9.56035 -0.0684,-1.128 -8.79877,-9.38438 -8.79877,-9.38438 z m -35.13663,-34.25783 c -0.002,-0.29377 4.21232,-3.398699 13.00795,-5.506136 0.94684,7.673106 0.86142,12.568996 1.64792,22.061046 -3.69782,-2.62447 -9.81657,-7.30737 -14.02899,-9.61811 -0.1306,-3.153 -0.62673,-6.9163 -0.62688,-6.9368 z m -83.414849,6.32905 c -3.123869,-1.00986 -4.929561,-3.96653 -4.538936,-7.432142 0.653729,-5.799865 8.526956,-7.935351 12.018822,-3.259912 4.128164,5.527414 -0.959483,12.799894 -7.479886,10.692054 z m 117.861609,0.1333 c -3.65959,-1.11726 -5.64979,-6.0026 -3.86694,-9.492176 3.31217,-6.482906 12.98008,-4.396879 12.95878,2.796086 -0.0139,4.70171 -4.58858,8.07092 -9.09184,6.69609 z M 78.583151,83.461827 c 1.857438,-4.331772 3.49549,-10.765336 3.287804,-12.913083 -0.1,-1.034131 -0.246049,-1.167423 -1.50072,-1.369622 -3.251317,-0.523975 -4.647233,-3.867893 -3.552754,-8.510628 0.332229,-1.409304 0.715854,-4.864247 0.852499,-7.677649 0.215388,-4.434634 0.369561,-5.379086 1.15867,-7.097892 1.536584,-3.346928 4.764372,-6.367117 7.870413,-7.364219 0.776111,-0.249148 2.99861,-1.249949 4.938888,-2.224003 3.115198,-1.563886 3.850221,-1.790506 6.284839,-1.937718 l 2.75706,-0.166709 1.94775,2.01094 c 2.12296,2.191834 3.83901,5.427786 3.53226,6.660762 -2.42676,9.754232 -4.39989,13.275629 -10.0677,17.967517 -1.673704,1.385515 -4.283179,3.718552 -5.798834,5.184525 -1.515654,1.465974 -3.248602,2.921253 -3.850995,3.233954 -0.994876,0.516438 -1.151033,0.839765 -1.703804,3.527777 -1.100308,5.350572 -3.0137,9.093019 -5.472729,10.704236 -0.936655,0.613721 -0.957524,0.612859 -0.682647,-0.02819 z M 91.481103,50.510943 c 0.890173,-0.476407 1.744348,-2.16342 1.744348,-3.445125 0,-2.462159 -3.353469,-3.026072 -4.839346,-0.813775 -1.822928,2.714128 0.362438,5.721321 3.094998,4.2589 z"
         id="path1" /><path
         style="fill:#4cae4f;fill-opacity:1"
         d="m 34.311567,224.89903 c -16.861289,0.18368 -26.2672217,-11.47811 -23.938682,-24.50889 2.667575,-14.92806 11.458114,-27.3818 25.8977,-45.53604 0.106022,-10e-4 2.188858,2.10666 4.628519,4.68405 l 4.435753,4.68617 -1.204297,1.39925 c -11.067062,12.85861 -16.822906,25.24877 -18.465341,31.81569 -2.909315,11.63225 4.490768,14.99665 13.497124,15.18352 2.207987,0.0458 3.30997,-0.0891 6.157545,-0.11222 1.885484,2.42787 5.837288,10.99768 -2.98519,12.40363 -0.703883,0.11217 -6.30975,0.17141 -8.023131,-0.0151 z m 75.848893,-18.42907 c 13.2463,-6.6208 23.38719,-15.50934 33.53087,-26.15981 1.7726,-1.87441 -1.6676,21.55836 -16.53018,28.8752 -3.04813,1.50059 -9.70514,1.00145 -17.00069,-2.71539 z M 19.764286,122.57626 C 3.4663931,93.618869 13.706798,82.174138 22.777625,77.7179 c 9.957887,-4.892023 23.020786,-4.942302 45.755582,4.388422 3.278178,1.345416 13.360399,6.607449 12.701215,7.137323 -4.173596,3.354871 -5.34544,5.945396 -7.77221,9.535057 -0.125474,0.125473 -4.187881,-2.443208 -9.071501,-4.901608 C 50.475453,86.872195 38.605346,86.945848 32.27587,89.106526 19.718429,94.281654 27.380576,110.14322 31.281275,117.4621 c -5.277657,6.8089 -8.160409,10.72335 -8.825499,9.72888 -0.06059,-0.0906 -1.40835,-2.3349 -2.69149,-4.61472 z M 118.06061,45.36104 c -2.5508,-5.416862 -8.42692,-6.004417 -12.03857,-2.5978 -1.94841,0.629533 -3.63021,-6.306763 -5.80409,-8.551174 l 2.17517,-9.17e-4 1.59205,-0.114301 -1.6939,-0.80812 c -3.578153,-1.707046 -8.714121,-0.898532 -12.544286,1.974747 l -1.185412,0.889261 0.248348,-0.841361 c 0.420458,-1.424436 2.655995,-4.589485 4.470353,-6.329075 5.477395,-5.251675 15.300477,-7.231304 22.564977,-4.392425 15.32426,5.98854 19.5424,27.564027 21.99657,50.692283 -4.01443,0.907254 -8.30572,2.579458 -12.75577,4.676546 -0.60592,-12.839232 -1.78329,-22.755108 -7.02545,-34.597664 z m -67.115262,90.34102 c 3.555804,-4.81484 5.959543,-7.0178 15.318227,-15.48491 -2.52921,6.16769 -4.360895,15.30271 -4.497514,24.41727 -2.152428,2.56318 -1.35991,1.44684 -1.35991,1.44684 -4.208325,-4.18004 -6.304877,-6.0225 -9.460803,-10.3792 z m 79.185532,28.27074 c 1.12116,-9.95574 1.00389,-16.71011 -0.34025,-28.26248 7.068,5.64356 13.15534,11.70764 13.15534,11.70764 -6.4429,9.27108 -9.74526,13.26802 -12.81509,16.55484 z"
         id="path2" /></g></g></svg>
